<svg xmlns="http://www.w3.org/2000/svg" width="15.5" height="15.5" viewBox="0 0 15.5 15.5">
  <path id="times-circle-regular" d="M15.75,8a7.75,7.75,0,1,0,7.75,7.75A7.749,7.749,0,0,0,15.75,8Zm0,14A6.25,6.25,0,1,1,22,15.75,6.248,6.248,0,0,1,15.75,22Zm3.181-8.194L16.987,15.75l1.944,1.944a.375.375,0,0,1,0,.531l-.706.706a.375.375,0,0,1-.531,0L15.75,16.987l-1.944,1.944a.375.375,0,0,1-.531,0l-.706-.706a.375.375,0,0,1,0-.531l1.944-1.944-1.944-1.944a.375.375,0,0,1,0-.531l.706-.706a.375.375,0,0,1,.531,0l1.944,1.944,1.944-1.944a.375.375,0,0,1,.531,0l.706.706a.375.375,0,0,1,0,.531Z" transform="translate(-8 -8)" fill="#c0c6d1"/>
</svg>
